<svg width="32" height="32" viewBox="0 0 32 32" fill="none" xmlns="http://www.w3.org/2000/svg">
          <path d="M19.8084 25.2709C20.8736 25.0545 21.6754 24.1126 21.6754 22.9834C21.6754 21.6942 20.6303 20.6491 19.3411 20.6491H16.9766M19.8084 25.2709C19.6574 25.3016 19.5011 25.3177 19.3411 25.3177H18.9933V26.4354C19.3907 26.3609 20.2599 26.346 20.5579 26.8824C20.8559 27.4189 20.8642 27.851 20.8311 28H12.9126M19.8084 25.2709L21.303 25.6904C21.6209 25.8294 22.7031 27.3957 23.1998 28C23.1998 28 24.3676 28 25.0577 28C25.1639 26.5477 24.2751 26.5478 23.7122 26.0345L23.8451 17.8135C23.8451 16.7395 23.8451 16.6941 23.8451 16.4295C23.8451 16.165 23.3373 13.6468 23.1998 13.4785C22.7984 10.7115 25.2564 12.2282 25.1775 10.4666C25.5261 10.0703 24.3137 8.31477 23.7122 7.6603C23.936 7.10819 23.5399 4.99006 23.3139 4L21.185 6.17141C21.1748 6.17127 21.1645 6.1712 21.1542 6.1712C20.7974 6.1712 20.4471 6.21971 20.112 6.3107C20.0278 5.40197 19.7558 3.704 19.3411 4.18189C18.9263 4.65979 17.965 7.29182 17.5362 8.5481C17.3868 8.92783 17.3043 9.33912 17.3043 9.77125C17.3043 10.8309 17.0742 12.1646 17.4829 13.1976H17.4536C13.2839 13.1976 9.90366 16.4019 9.90366 20.3547C9.90366 22.3858 11.4791 24.858 12.9126 26.1607V28M12.9126 28C10.7458 27.9507 7.75361 27.7549 6.94378 22.9834C6.29615 19.1676 7.33125 17.5335 10.6042 14.2606C12.1073 12.7575 13.4551 10.5374 11.4421 8.5481" stroke="#BEF34D" stroke-width="2" stroke-linecap="round" stroke-linejoin="round"/>
        </svg>