<svg width="32" height="32" viewBox="0 0 32 32" fill="none" xmlns="http://www.w3.org/2000/svg">
<path d="M9.05167 4.50343C11.8416 4.50343 14.1033 4.21726 14.1033 3.86424C14.1033 3.51123 11.8416 3.84792 9.05167 3.84792C6.26171 3.84792 4 3.51123 4 3.86424C4 4.21726 6.26171 4.50343 9.05167 4.50343ZM9.05167 4.50343V12.8609M9.05167 12.8609H14.1033V20.002M9.05167 12.8609H4V20.002M14.1033 20.002H10.8604M14.1033 20.002H19.0727M4 20.002V23.1338M4 20.002H6.22374M7.28984 20.002V16.5562C7.82524 15.1855 10.3618 15.1253 10.8604 16.5562V20.002M7.28984 20.002H10.8604M7.28984 20.002H6.22374M21.2797 12.8919C24.0697 12.8919 24.5107 12.6057 24.5107 12.2527C24.5107 11.8997 24.0697 12.2527 21.2797 12.2527C18.4897 12.2527 18.0487 11.8997 18.0487 12.2527C18.0487 12.6057 18.4897 12.8919 21.2797 12.8919ZM21.2797 12.8919V20.002M21.2797 20.002V23.1338M21.2797 20.002H19.0727M4 28.2971V23.1338M21.2797 28.2971V24.9446M21.2797 24.9446H24.3097M21.2797 24.9446V23.1338M24.3097 24.9446C24.5645 25.2001 25.0679 25.4503 26.0331 25.4503C27.7315 25.4503 28 24.6757 28 24.4608C28 24.2459 27.7315 24.9508 26.0331 24.9508C24.3347 24.9508 24.0662 24.2459 24.0662 24.4608C24.0662 24.5535 24.1163 24.7506 24.3097 24.9446ZM4 23.1338H6.22374M9.11049 23.1338V26.472C9.11049 26.472 10.4936 27.9207 12.6693 27.9207C14.8449 27.9207 16.228 26.472 16.228 26.472V23.1338M9.11049 23.1338C9.11049 23.1338 10.5055 25.4503 12.6693 25.4503C14.833 25.4503 16.228 23.1338 16.228 23.1338M9.11049 23.1338H6.22374M16.228 23.1338H19.0727M21.2797 23.1338H19.0727M19.0727 20.002V23.1338M19.0727 23.1338V28.2971M6.22374 20.002V23.1338M6.22374 23.1338V28.2971" stroke="#BEF34D" stroke-width="2" stroke-linecap="round" stroke-linejoin="round"/>
</svg>
