<svg width="32" height="32" viewBox="0 0 32 32" fill="none" xmlns="http://www.w3.org/2000/svg">
<g clip-path="url(#clip0_1_339)">
<path fill-rule="evenodd" clip-rule="evenodd" d="M16.0001 29.0171L17.0217 27.866C18.1809 26.5384 19.2236 25.2788 20.1513 24.0807L20.9171 23.0704C24.1147 18.7621 25.7143 15.3427 25.7143 12.8153C25.7143 7.42066 21.3656 3.04761 16.0001 3.04761C10.6345 3.04761 6.28577 7.42066 6.28577 12.8153C6.28577 15.3427 7.88539 18.7621 11.083 23.0704L11.8488 24.0807C13.1723 25.7764 14.5569 27.4219 16.0001 29.0171Z" stroke="#BEF34D" stroke-width="2.5" stroke-linecap="round" stroke-linejoin="round"/>
<path d="M16 16.8095C18.2354 16.8095 20.0476 14.9973 20.0476 12.7619C20.0476 10.5264 18.2354 8.71423 16 8.71423C13.7646 8.71423 11.9524 10.5264 11.9524 12.7619C11.9524 14.9973 13.7646 16.8095 16 16.8095Z" stroke="#BEF34D" stroke-width="2.5" stroke-linecap="round" stroke-linejoin="round"/>
</g>
<defs>
<clipPath id="clip0_1_339">
<rect width="32" height="32" rx="8" fill="white"/>
</clipPath>
</defs>
</svg>
