<svg width="61" height="64" viewBox="0 0 61 64" fill="none" xmlns="http://www.w3.org/2000/svg">
<path d="M41.5 22.5L42 30C42 33.1826 38.7357 36.2349 36.4853 38.4853C34.2348 40.7357 31.1826 42 28 42H24C20.8174 42 17.7652 40.7357 15.5147 38.4853C13.2643 36.2349 11 32.1826 11 29V26.5M27 8.21411C28.5154 8.21411 26.4284 6.28558 27.5 5.214C28.5716 4.14242 31 4.01545 31 2.5M20.5 8.21411C22.5 8.21411 21.176 5.38269 22.5 4.5C24 3.5 26 2.5 25.5 1.5" stroke="#BEF34D" stroke-width="1.13" stroke-linecap="round" stroke-linejoin="round"/>
<path d="M41 23H44.5C45.4283 23 46.3185 23.4741 46.9749 24.318C47.6313 25.1619 48 26.3065 48 27.5C48 28.6935 47.6313 29.8381 46.9749 30.682C46.3185 31.5259 45.4283 32 44.5 32H42.4" stroke="#BEF34D" stroke-width="2.125" stroke-linecap="round" stroke-linejoin="round"/>
<path d="M34.3314 12.869C32.0729 11.7882 28.3785 10.93 24.6379 11.0045L24.6232 11.0047C21.4771 11.0663 18.1969 11.5827 15.6693 13.4999C13.1064 15.444 11.5072 18.6758 11.38 23.7274C11.1138 24.8074 10.9865 25.9145 11.0011 27.0243C11.008 30.8352 12.5902 34.4812 15.3914 37.1889C18.167 39.8716 21.9221 41.4249 25.8654 41.5412C28.1526 42.0837 30.1037 42.139 31.795 41.7397C33.5247 41.3314 34.915 40.4634 36.0725 39.2791C36.0754 39.276 36.0784 39.273 36.0813 39.2699C36.0852 39.2658 36.0891 39.2617 36.0929 39.2575C36.196 39.1457 36.3333 39.0096 36.5089 38.8356C36.5798 38.7654 36.6569 38.6889 36.7406 38.6055C37.015 38.3314 37.3337 38.0058 37.6302 37.6607C37.9226 37.3205 38.2218 36.9292 38.4384 36.5198C38.5838 36.2448 38.727 35.897 38.7663 35.5116C40.2094 33.6307 41.1546 31.4421 41.514 29.1304C41.8626 26.8882 41.6486 24.6034 40.8945 22.4605C41.0969 22.2103 41.3177 21.9729 41.5554 21.7502C41.6728 21.6402 41.7619 21.5036 41.8152 21.3518L42.9021 18.2575C43.5162 17.109 43.8888 15.8555 43.9965 14.5674C44.0212 14.2728 43.9142 13.9823 43.7043 13.7741C43.4944 13.5659 43.2031 13.4612 42.9086 13.4882C41.7831 13.5915 40.6948 13.9274 39.7201 14.4722C39.1195 14.2226 38.493 14.0354 37.8515 13.9133C37.7486 13.5865 37.5975 13.275 37.4024 12.9886C37.0494 12.4702 36.5656 12.0528 36.0023 11.7709C35.5098 11.5245 34.9108 11.7227 34.6624 12.2142L34.3314 12.869ZM15.4059 23.6708C15.9074 22.2314 16.7292 20.8999 17.8261 19.7688C18.7039 19.2399 19.713 18.9255 20.7606 18.8589C21.3403 18.8644 21.8293 19.0378 22.2402 19.4183C22.6615 19.8087 23.0773 20.489 23.3571 21.6412V24.6154C23.3571 24.6468 23.3585 24.6782 23.3615 24.7095C23.5731 26.9481 24.4739 28.4295 25.2643 29.4933C25.4563 29.7517 25.6149 29.9531 25.7534 30.1289C25.927 30.3492 26.0688 30.5292 26.2047 30.7307C26.4286 31.0626 26.4126 31.1542 26.4137 31.1408C26.4097 31.1892 26.4093 31.2378 26.4123 31.2862C26.4459 31.8156 26.7689 32.2255 26.9393 32.4332C27.0439 32.5608 27.1605 32.6897 27.2658 32.8057L27.2896 32.832C27.3912 32.9439 27.4879 33.0505 27.5847 33.1634C28.0015 33.6493 28.3069 34.1281 28.3535 34.7316C28.3557 34.7596 28.3591 34.7874 28.3636 34.8152C28.4357 35.2579 28.7319 35.517 28.8968 35.633C29.0815 35.7629 29.2837 35.8443 29.4569 35.897C29.8092 36.0042 30.2263 36.0479 30.6335 36.0208C31.3548 35.9727 32.6366 35.619 32.8902 34.271C32.9305 34.057 32.8998 33.8357 32.8028 33.6407C31.0935 30.2043 30.3906 27.9635 30.1542 26.326C29.9341 24.8017 30.1086 23.7511 30.332 22.6171C30.8627 21.7959 31.2013 21.3007 31.7116 21.0694C31.8074 21.18 31.9334 21.367 32.0907 21.6543C32.2306 21.9097 32.364 22.184 32.5095 22.4831C32.5619 22.5908 32.6159 22.7017 32.6723 22.8161C32.8724 23.222 33.1034 23.6721 33.3644 24.0485C33.4272 24.1391 33.5046 24.2187 33.5934 24.284C34.1142 24.6673 34.6953 24.7967 35.1473 24.8719C35.3299 24.9022 35.4866 24.9241 35.6299 24.9441C35.8381 24.9731 36.0182 24.9982 36.209 25.0399C36.5605 25.2638 36.9565 25.4118 37.3696 25.4758C37.4798 25.4929 37.5907 25.5039 37.7017 25.5089C37.7785 26.0079 37.8201 26.5114 37.8262 27.0161C37.8275 29.5276 36.8981 31.9687 35.1859 33.9143C33.5082 35.8208 31.1813 37.1338 28.5899 37.624C25.7949 37.083 23.5022 34.6914 21.7802 31.9393C20.0492 29.1728 19.052 26.2916 18.8016 25.375C18.7913 25.3373 18.7788 25.3002 18.7641 25.264C18.5188 24.6565 18.1844 24.1509 17.734 23.8117C17.2612 23.4557 16.7174 23.3282 16.1859 23.4056C15.9046 23.4466 15.6437 23.5405 15.4059 23.6708Z" stroke="#BEF34D" stroke-width="2" stroke-linecap="round" stroke-linejoin="round"/>
<path d="M6.786 57.18C4.89 57.18 3.384 56.598 2.268 55.434C1.164 54.258 0.612 52.59 0.612 50.43C0.612 48.294 1.146 46.638 2.214 45.462C3.294 44.274 4.8 43.68 6.732 43.68C7.62 43.68 8.364 43.734 8.964 43.842C9.252 43.89 9.492 44.034 9.684 44.274C9.876 44.514 9.972 44.784 9.972 45.084V45.228C9.972 45.48 9.864 45.678 9.648 45.822C9.444 45.966 9.222 46.008 8.982 45.948C8.394 45.792 7.734 45.714 7.002 45.714C5.814 45.714 4.878 46.122 4.194 46.938C3.522 47.754 3.186 48.918 3.186 50.43C3.186 51.93 3.534 53.094 4.23 53.922C4.938 54.738 5.88 55.146 7.056 55.146C7.848 55.146 8.526 55.074 9.09 54.93C9.33 54.87 9.552 54.912 9.756 55.056C9.972 55.2 10.08 55.398 10.08 55.65V55.776C10.08 56.076 9.984 56.346 9.792 56.586C9.612 56.814 9.372 56.952 9.072 57C8.388 57.12 7.626 57.18 6.786 57.18ZM16.8844 52.5C15.1684 52.5 14.3104 53.028 14.3104 54.084C14.3104 54.468 14.4184 54.78 14.6344 55.02C14.8624 55.26 15.1504 55.38 15.4984 55.38C16.1824 55.38 16.7344 55.17 17.1544 54.75C17.5744 54.318 17.7844 53.73 17.7844 52.986V52.662C17.7844 52.554 17.7304 52.5 17.6224 52.5H16.8844ZM14.8504 57.18C14.0344 57.18 13.3564 56.916 12.8164 56.388C12.2884 55.848 12.0244 55.152 12.0244 54.3C12.0244 53.256 12.4204 52.446 13.2124 51.87C14.0164 51.294 15.2404 51.006 16.8844 51.006H17.6224C17.7304 51.006 17.7844 50.952 17.7844 50.844V50.7C17.7844 50.148 17.6524 49.764 17.3884 49.548C17.1244 49.32 16.6564 49.206 15.9844 49.206C15.2884 49.206 14.4364 49.332 13.4284 49.584C13.2124 49.644 13.0144 49.608 12.8344 49.476C12.6544 49.332 12.5644 49.146 12.5644 48.918C12.5644 48.642 12.6484 48.396 12.8164 48.18C12.9844 47.952 13.2004 47.814 13.4644 47.766C14.3764 47.562 15.2344 47.46 16.0384 47.46C17.5744 47.46 18.6484 47.736 19.2604 48.288C19.8724 48.84 20.1784 49.806 20.1784 51.186V55.974C20.1784 56.25 20.0764 56.49 19.8724 56.694C19.6804 56.898 19.4464 57 19.1704 57H18.9724C18.6844 57 18.4384 56.904 18.2344 56.712C18.0304 56.508 17.9224 56.262 17.9104 55.974V55.722C17.9104 55.71 17.9044 55.704 17.8924 55.704C17.8684 55.704 17.8564 55.71 17.8564 55.722C17.1244 56.694 16.1224 57.18 14.8504 57.18ZM22.4333 49.746C22.1933 49.746 21.9893 49.662 21.8213 49.494C21.6533 49.314 21.5693 49.104 21.5693 48.864C21.5693 48.624 21.6533 48.42 21.8213 48.252C21.9893 48.084 22.1933 48 22.4333 48H23.2973C23.4053 48 23.4593 47.946 23.4593 47.838V45.606C23.4593 45.33 23.5553 45.09 23.7473 44.886C23.9513 44.682 24.1913 44.58 24.4673 44.58H24.8273C25.1033 44.58 25.3433 44.682 25.5473 44.886C25.7513 45.09 25.8533 45.33 25.8533 45.606V47.838C25.8533 47.946 25.9073 48 26.0153 48H28.0673C28.3073 48 28.5113 48.084 28.6793 48.252C28.8593 48.42 28.9493 48.624 28.9493 48.864C28.9493 49.104 28.8593 49.314 28.6793 49.494C28.5113 49.662 28.3073 49.746 28.0673 49.746H26.0153C25.9073 49.746 25.8533 49.794 25.8533 49.89V53.526C25.8533 54.306 25.9373 54.81 26.1053 55.038C26.2733 55.266 26.6213 55.38 27.1493 55.38C27.4373 55.38 27.6533 55.368 27.7973 55.344C28.0373 55.32 28.2473 55.374 28.4273 55.506C28.6073 55.638 28.6973 55.818 28.6973 56.046C28.6973 56.31 28.6073 56.55 28.4273 56.766C28.2593 56.97 28.0493 57.084 27.7973 57.108C27.2693 57.156 26.8733 57.18 26.6093 57.18C25.4453 57.18 24.6293 56.934 24.1613 56.442C23.6933 55.938 23.4593 55.044 23.4593 53.76V49.89C23.4593 49.794 23.4053 49.746 23.2973 49.746H22.4333ZM35.2794 57.18C33.7914 57.18 32.6454 56.772 31.8414 55.956C31.0374 55.128 30.6354 53.916 30.6354 52.32C30.6354 50.748 31.0194 49.548 31.7874 48.72C32.5674 47.88 33.6714 47.46 35.0994 47.46C35.7354 47.46 36.3474 47.502 36.9354 47.586C37.2114 47.622 37.4394 47.748 37.6194 47.964C37.7994 48.18 37.8894 48.432 37.8894 48.72C37.8894 48.96 37.7934 49.152 37.6014 49.296C37.4214 49.44 37.2114 49.488 36.9714 49.44C36.5034 49.344 35.9814 49.296 35.4054 49.296C34.6494 49.296 34.0854 49.536 33.7134 50.016C33.3414 50.496 33.1554 51.264 33.1554 52.32C33.1554 53.4 33.3534 54.174 33.7494 54.642C34.1454 55.11 34.7574 55.344 35.5854 55.344C36.1734 55.344 36.6834 55.29 37.1154 55.182C37.3434 55.122 37.5474 55.164 37.7274 55.308C37.9194 55.452 38.0154 55.638 38.0154 55.866C38.0154 56.154 37.9254 56.406 37.7454 56.622C37.5774 56.838 37.3554 56.97 37.0794 57.018C36.4674 57.126 35.8674 57.18 35.2794 57.18ZM43.3401 57.18C42.2841 57.18 41.5161 56.892 41.0361 56.316C40.5561 55.728 40.3161 54.738 40.3161 53.346V48.666C40.3161 48.39 40.4181 48.15 40.6221 47.946C40.8261 47.742 41.0661 47.64 41.3421 47.64H41.6301C41.9061 47.64 42.1461 47.742 42.3501 47.946C42.5541 48.15 42.6561 48.39 42.6561 48.666V53.094C42.6561 53.934 42.7701 54.516 42.9981 54.84C43.2261 55.164 43.6101 55.326 44.1501 55.326C44.6421 55.326 45.0981 55.116 45.5181 54.696C45.9501 54.276 46.1661 53.826 46.1661 53.346V48.666C46.1661 48.39 46.2681 48.15 46.4721 47.946C46.6761 47.742 46.9161 47.64 47.1921 47.64H47.5521C47.8281 47.64 48.0621 47.742 48.2541 47.946C48.4581 48.15 48.5601 48.39 48.5601 48.666V55.974C48.5601 56.25 48.4581 56.49 48.2541 56.694C48.0621 56.898 47.8281 57 47.5521 57H47.3181C47.0301 57 46.7841 56.904 46.5801 56.712C46.3881 56.508 46.2861 56.262 46.2741 55.974L46.2561 55.848C46.2561 55.836 46.2501 55.83 46.2381 55.83C46.2261 55.83 46.2141 55.836 46.2021 55.848C45.3861 56.736 44.4321 57.18 43.3401 57.18ZM53.4168 51.096V53.544C53.4168 54.024 53.6208 54.45 54.0288 54.822C54.4488 55.194 54.9348 55.38 55.4868 55.38C56.1228 55.38 56.6268 55.122 56.9988 54.606C57.3708 54.09 57.5568 53.328 57.5568 52.32C57.5568 50.28 56.8668 49.26 55.4868 49.26C54.9348 49.26 54.4488 49.446 54.0288 49.818C53.6208 50.19 53.4168 50.616 53.4168 51.096ZM52.0668 60.96C51.7908 60.96 51.5508 60.858 51.3468 60.654C51.1428 60.45 51.0408 60.21 51.0408 59.934V48.666C51.0408 48.39 51.1428 48.15 51.3468 47.946C51.5508 47.742 51.7908 47.64 52.0668 47.64H52.2828C52.5708 47.64 52.8168 47.742 53.0208 47.946C53.2248 48.138 53.3328 48.378 53.3448 48.666V48.792C53.3448 48.804 53.3508 48.81 53.3628 48.81C53.3748 48.81 53.3868 48.804 53.3988 48.792C53.8308 48.312 54.2628 47.97 54.6948 47.766C55.1268 47.562 55.6308 47.46 56.2068 47.46C57.3348 47.46 58.2348 47.886 58.9068 48.738C59.5788 49.578 59.9148 50.772 59.9148 52.32C59.9148 53.82 59.5608 55.008 58.8528 55.884C58.1568 56.748 57.2748 57.18 56.2068 57.18C55.1628 57.18 54.2568 56.802 53.4888 56.046C53.4768 56.034 53.4648 56.028 53.4528 56.028C53.4408 56.028 53.4348 56.034 53.4348 56.046V59.934C53.4348 60.21 53.3328 60.45 53.1288 60.654C52.9368 60.858 52.7028 60.96 52.4268 60.96H52.0668Z" fill="#BEF34D"/>
</svg>
