<svg width="25" height="25" viewBox="0 0 25 25" fill="none" xmlns="http://www.w3.org/2000/svg">
          <path fill-rule="evenodd" clip-rule="evenodd" d="M9.35952 2.52258L8.80643 3.72842C8.26101 4.91755 7.95604 6.2268 7.95131 7.60995C7.93351 12.8189 12.1416 17.0677 17.3623 17.0855C18.7455 17.0902 20.0568 16.7942 21.2496 16.2569L22.4592 15.7121L21.9101 16.9198C20.2617 20.5453 16.6079 23.0483 12.3766 23.0338C6.60319 23.0141 1.94932 18.3283 1.96905 12.5549C1.98351 8.32359 4.51137 4.68701 8.14813 3.0634L9.35952 2.52258ZM7.41076 4.58561C4.74772 6.24686 2.98053 9.19523 2.96904 12.5583C2.9512 17.7794 7.15888 22.016 12.38 22.0338C15.7431 22.0453 18.7035 20.2983 20.3829 17.6467C19.4236 17.9356 18.4096 18.0891 17.3589 18.0855C11.585 18.0658 6.93163 13.3669 6.95132 7.60653C6.95491 6.55581 7.11531 5.54293 7.41076 4.58561Z" fill="white" stroke="#BEF34D" stroke-width="2"/>
        </svg>