<svg width="30" height="30" viewBox="0 0 30 30" fill="none" xmlns="http://www.w3.org/2000/svg">
          <path d="M5.6475 23.1562C7.17 22.0929 8.68042 21.2773 10.1788 20.7094C11.6771 20.1415 13.2842 19.8575 15 19.8575C16.7158 19.8575 18.329 20.1415 19.8394 20.7094C21.3498 21.2773 22.8663 22.0929 24.3888 23.1562C25.4521 21.8512 26.2073 20.5342 26.6544 19.205C27.1015 17.8758 27.325 16.4742 27.325 15C27.325 11.4958 26.1469 8.56563 23.7906 6.20937C21.4344 3.85312 18.5042 2.675 15 2.675C11.4958 2.675 8.56563 3.85312 6.20937 6.20937C3.85312 8.56563 2.675 11.4958 2.675 15C2.675 16.4742 2.90458 17.8758 3.36375 19.205C3.82292 20.5342 4.58417 21.8512 5.6475 23.1562ZM14.9933 16.0875C13.5961 16.0875 12.4202 15.608 11.4656 14.6489C10.511 13.6898 10.0338 12.5117 10.0338 11.1145C10.0338 9.71734 10.5133 8.54146 11.4724 7.58687C12.4314 6.63229 13.6096 6.155 15.0067 6.155C16.4039 6.155 17.5798 6.63454 18.5344 7.59362C19.489 8.5527 19.9662 9.73082 19.9662 11.128C19.9662 12.5252 19.4867 13.701 18.5276 14.6556C17.5686 15.6102 16.3904 16.0875 14.9933 16.0875ZM15.017 29.5C13.024 29.5 11.1454 29.1194 9.38125 28.3581C7.61708 27.5969 6.07646 26.5577 4.75938 25.2406C3.44229 23.9235 2.40313 22.3857 1.64188 20.6272C0.880625 18.8687 0.5 16.9898 0.5 14.9904C0.5 12.991 0.880625 11.1152 1.64188 9.36313C2.40313 7.61104 3.44229 6.07646 4.75938 4.75938C6.07646 3.44229 7.61426 2.40313 9.37277 1.64188C11.1313 0.880625 13.0102 0.5 15.0096 0.5C17.009 0.5 18.8848 0.880625 20.6369 1.64188C22.389 2.40313 23.9235 3.44229 25.2406 4.75938C26.5577 6.07646 27.5969 7.61143 28.3581 9.36429C29.1194 11.1171 29.5 12.9901 29.5 14.983C29.5 16.976 29.1194 18.8546 28.3581 20.6187C27.5969 22.3829 26.5577 23.9235 25.2406 25.2406C23.9235 26.5577 22.3886 27.5969 20.6357 28.3581C18.8829 29.1194 17.0099 29.5 15.017 29.5ZM15 27.325C16.3292 27.325 17.6281 27.1317 18.8969 26.745C20.1656 26.3583 21.4163 25.6817 22.6488 24.715C21.4163 23.845 20.1596 23.1804 18.8787 22.7213C17.5979 22.2621 16.305 22.0325 15 22.0325C13.695 22.0325 12.4021 22.2621 11.1213 22.7213C9.84042 23.1804 8.58375 23.845 7.35125 24.715C8.58375 25.6817 9.83437 26.3583 11.1031 26.745C12.3719 27.1317 13.6708 27.325 15 27.325ZM15 13.9125C15.8217 13.9125 16.4923 13.6527 17.0119 13.1331C17.5315 12.6135 17.7913 11.9429 17.7913 11.1213C17.7913 10.2996 17.5315 9.62896 17.0119 9.10938C16.4923 8.58979 15.8217 8.33 15 8.33C14.1783 8.33 13.5077 8.58979 12.9881 9.10938C12.4685 9.62896 12.2087 10.2996 12.2087 11.1213C12.2087 11.9429 12.4685 12.6135 12.9881 13.1331C13.5077 13.6527 14.1783 13.9125 15 13.9125Z" fill="#BEF34D" stroke="#BEF34D" stroke-width="0.5"/>
        </svg>