<svg width="13" height="13" viewBox="0 0 13 13" fill="none" xmlns="http://www.w3.org/2000/svg">
<path d="M5.95988 1.03594C6.14654 0.543604 6.85296 0.543604 7.04021 1.03594L8.24771 4.38077C8.28984 4.48973 8.36402 4.58335 8.46045 4.64928C8.55689 4.7152 8.67106 4.75033 8.78788 4.75002H11.7553C12.3036 4.75002 12.5428 5.43252 12.1117 5.76677L10 7.66669C9.90545 7.7394 9.83633 7.84021 9.80258 7.95465C9.76884 8.06909 9.77221 8.19128 9.81221 8.30369L10.5834 11.5721C10.7712 12.0971 10.1634 12.548 9.70371 12.2249L6.83546 10.4049C6.73724 10.3358 6.6201 10.2988 6.50004 10.2988C6.37999 10.2988 6.26285 10.3358 6.16463 10.4049L3.29638 12.2249C2.83729 12.548 2.22888 12.0965 2.41671 11.5721L3.18788 8.30369C3.22788 8.19128 3.23125 8.06909 3.19751 7.95465C3.16376 7.84021 3.09464 7.7394 3.00004 7.66669L0.888378 5.76677C0.456711 5.43252 0.697045 4.75002 1.24421 4.75002H4.21163C4.32846 4.75041 4.44267 4.71531 4.53912 4.64938C4.63558 4.58344 4.70974 4.48978 4.75179 4.38077L5.95929 1.03594H5.95988Z" fill="#FCD779" stroke="#FCD779" stroke-linecap="round" stroke-linejoin="round"/>
</svg>
