<svg width="60" height="86" viewBox="0 0 60 86" fill="none" xmlns="http://www.w3.org/2000/svg">
<path d="M19.4301 58.7679C19.4301 58.7679 23.6879 61.5903 26.4161 61.5903C29.1443 61.5903 33.4021 58.7679 33.4021 58.7679M19.4301 58.7679V84M19.4301 58.7679L19.4298 50.0158H15.0962M33.4021 58.7679V84M33.4021 58.7679L33.4015 43.4883V27.4673M33.4021 58.7679H39.0212L58 84M4.03094 50.0158H2V84M4.03094 50.0158V35.8624H9.56357M4.03094 50.0158H7.11248M15.0962 50.0158V35.8624H9.56357M15.0962 50.0158H12.0848M7.11248 50.0158V42.9585C7.11248 42.9585 8.45451 41.375 9.49359 41.3281C10.6066 41.2779 12.0848 42.9585 12.0848 42.9585V50.0158M7.11248 50.0158H12.0848M33.4015 19.0721H38.1808M33.4015 19.0721H32.8587M33.4015 19.0721V27.4673M58 19.0721C58 19.0721 56.8087 25.1615 51.8371 25.3052C46.8656 25.4488 45.3941 19.0721 45.3941 19.0721H38.1808M21.7932 19.0721V2H38.1808V19.0721M21.7932 19.0721H17.2411H9.49359M21.7932 19.0721H27.0119M32.8587 19.0721V11.6489C30.9079 9.57717 28.9946 9.78259 27.0119 11.6489V19.0721M32.8587 19.0721H27.0119M9.56357 35.8624L9.52858 27.4673M2.00038 19.0721H9.49359M9.49359 19.0721L9.52858 27.4673M9.52858 27.4673H14.6543C14.6543 27.4673 16.1195 32.6391 20.5241 32.6391C24.9287 32.6391 26.4161 27.4673 26.4161 27.4673H33.4015" stroke="white" stroke-width="3" stroke-linecap="round" stroke-linejoin="round"/>
</svg>
