<svg width="40" height="72" viewBox="0 0 40 72" fill="none" xmlns="http://www.w3.org/2000/svg">
<path d="M20.8242 2V22.2496M20.8242 70V49.5001M20.8242 70H4.76407M20.8242 70H38M20.8242 22.2496H2M20.8242 22.2496V31.9997M20.8242 31.9997H31.5784M20.8242 31.9997V41.2499M20.8242 41.2499H8.14591M20.8242 41.2499V49.5001M20.8242 49.5001H35.3537M35.3537 6.56807C35.3537 7.42941 30.2918 8.12766 23.6506 8.12766C17.0095 8.12766 16.3865 7.42941 16.3865 6.56807C16.3865 5.70673 17.0095 6.52823 23.6506 6.52823C30.2918 6.52823 35.3537 5.70673 35.3537 6.56807Z" stroke="white" stroke-width="3" stroke-linecap="round" stroke-linejoin="round"/>
</svg>
