<svg width="39" height="72" viewBox="0 0 39 72" fill="none" xmlns="http://www.w3.org/2000/svg">
<path d="M19.5 4.81578C29.165 4.81578 30.0716 3.80907 30.0716 2.56723C30.0716 1.32539 29.165 2.50978 19.5 2.50978C9.83502 2.50978 8.9284 1.32539 8.9284 2.56723C8.9284 3.80907 9.83502 4.81578 19.5 4.81578ZM19.5 4.81578V23.6627M19.5 23.6627H37V48.7839M19.5 23.6627H2V48.7839M37 48.7839H25.7657M37 48.7839V70M2 48.7839H9.70347H13.3967M2 48.7839V70M13.3967 48.7839V36.6622C15.2514 31.8403 24.0385 31.6283 25.7657 36.6622V48.7839M13.3967 48.7839H25.7657" stroke="white" stroke-width="3" stroke-linecap="round" stroke-linejoin="round"/>
</svg>
